<svg height="512" width="512" xmlns="http://www.w3.org/2000/svg"><path d="M489.948 237.362l-28.026-7.006a206.406 206.406 0 00-5.84-29.482l23.189-17.182a19.211 19.211 0 00-14.265-34.439l-28.558 4.25a207.742 207.742 0 00-16.713-24.968l14.869-24.782a19.212 19.212 0 00-26.358-26.358l-24.782 14.869a207.98 207.98 0 00-24.968-16.713l4.25-28.558a19.213 19.213 0 00-34.438-14.265l-17.182 23.189a206.571 206.571 0 00-29.482-5.84l-7.006-28.025a19.211 19.211 0 00-37.276 0l-7.006 28.025a206.378 206.378 0 00-29.482 5.84l-17.182-23.189a19.213 19.213 0 00-34.439 14.265l4.25 28.558a207.77 207.77 0 00-24.967 16.713l-24.782-14.869a19.212 19.212 0 00-26.358 26.358l14.869 24.782a207.9 207.9 0 00-16.713 24.968l-28.559-4.25c-8.72-1.298-17.203 3.506-20.577 11.651s-.771 17.54 6.312 22.788l23.189 17.182a206.571 206.571 0 00-5.84 29.482l-28.026 7.006a19.212 19.212 0 00.001 37.276l28.026 7.006a206.406 206.406 0 005.84 29.482l-23.189 17.182a19.211 19.211 0 0014.265 34.439l28.559-4.25a207.65 207.65 0 0016.713 24.967l-14.869 24.782a19.212 19.212 0 0026.358 26.358l24.782-14.869a208.048 208.048 0 0024.967 16.713l-4.25 28.559a19.212 19.212 0 0034.439 14.265l17.182-23.189a206.571 206.571 0 0029.482 5.84l7.006 28.026a19.211 19.211 0 0037.275-.001l7.006-28.026a206.378 206.378 0 0029.482-5.84l17.182 23.189a19.213 19.213 0 0034.439-14.265l-4.25-28.559a207.742 207.742 0 0024.968-16.713l24.782 14.869a19.212 19.212 0 0026.358-26.358l-14.869-24.782a207.968 207.968 0 0016.713-24.967l28.558 4.25a19.212 19.212 0 0014.265-34.438l-23.189-17.182a206.571 206.571 0 005.84-29.482l28.026-7.006a19.212 19.212 0 00-.001-37.276zM256 403.5c-81.462 0-147.5-66.038-147.5-147.5S174.538 108.5 256 108.5 403.5 174.538 403.5 256 337.462 403.5 256 403.5z" fill="#666ddc"/><path d="M276.05 79.62C364.64 89.58 433.5 164.75 433.5 256s-68.86 166.42-157.45 176.38c0 0 112.95-86.25 112.95-176.38S276.05 79.62 276.05 79.62z" fill="#95b0ed"/><path d="M276.05 79.62C348.31 91.39 404 165.87 404 256s-55.69 164.61-127.95 176.38c-6.58.74-13.27 1.12-20.05 1.12-98.03 0-177.5-79.47-177.5-177.5S157.97 78.5 256 78.5c6.78 0 13.47.38 20.05 1.12zM354.04 241c10 0 17.31-9.63 14.41-19.2-11.36-37.39-40.86-66.89-78.25-78.25-9.57-2.9-19.2 4.41-19.2 14.41v39.93c21.08 5.43 37.68 22.03 43.11 43.11zm14.41 49.2c2.9-9.57-4.41-19.2-14.41-19.2h-39.93c-5.43 21.08-22.03 37.68-43.11 43.11v39.93c0 10 9.63 17.31 19.2 14.41 37.39-11.36 66.89-40.86 78.25-78.25zM286 256c0-16.57-13.43-30-30-30s-30 13.43-30 30 13.43 30 30 30 30-13.43 30-30zm-45 98.04v-39.93c-21.08-5.43-37.68-22.03-43.11-43.11h-39.93c-10 0-17.31 9.63-14.41 19.2 11.36 37.39 40.86 66.89 78.25 78.25 9.57 2.9 19.2-4.41 19.2-14.41zm0-156.15v-39.93c0-10-9.63-17.31-19.2-14.41-37.39 11.36-66.89 40.86-78.25 78.25-2.9 9.57 4.41 19.2 14.41 19.2h39.93c5.43-21.08 22.03-37.68 43.11-43.11z" fill="#acd2f6"/><path d="M256 71c-43.626 0-85.99 15.486-119.288 43.607a7.5 7.5 0 109.677 11.46C176.984 100.229 215.912 86 256 86c93.738 0 170 76.262 170 170s-76.262 170-170 170S86 349.738 86 256c0-40.087 14.229-79.015 40.067-109.611 2.672-3.165 2.273-7.896-.892-10.569s-7.897-2.274-10.569.891C86.486 170.01 71 212.375 71 256c0 102.009 82.99 185 185 185s185-82.991 185-185S358.01 71 256 71z"/><path d="M491.768 281.914C503.68 278.936 512 268.279 512 256s-8.32-22.936-20.232-25.914l-23.097-5.774a215.676 215.676 0 00-4.048-20.432l19.114-14.163a26.673 26.673 0 008.776-31.684 26.673 26.673 0 00-28.61-16.199l-23.545 3.503a216.392 216.392 0 00-11.578-17.299l12.257-20.428a26.673 26.673 0 00-4.018-32.63 26.674 26.674 0 00-32.631-4.018L383.961 83.22a216.675 216.675 0 00-17.299-11.579l3.503-23.544a26.67 26.67 0 00-16.198-28.61 26.677 26.677 0 00-31.685 8.776L308.12 47.377a215.421 215.421 0 00-20.432-4.048l-5.774-23.096C278.937 8.32 268.28 0 256 0s-22.937 8.32-25.914 20.233l-5.774 23.097a215.546 215.546 0 00-20.432 4.048l-14.162-19.114a26.672 26.672 0 00-31.685-8.776 26.669 26.669 0 00-16.198 28.609l3.503 23.545a216.137 216.137 0 00-17.299 11.579l-20.428-12.257c-10.531-6.317-23.948-4.665-32.631 4.018s-10.335 22.101-4.018 32.631l12.257 20.427a216.574 216.574 0 00-11.578 17.299l-23.544-3.503a26.666 26.666 0 00-28.61 16.198 26.674 26.674 0 008.775 31.685l19.114 14.162a215.359 215.359 0 00-4.048 20.432l-23.097 5.774C8.32 233.064 0 243.721 0 256s8.32 22.936 20.232 25.914l23.097 5.774a215.339 215.339 0 004.048 20.431l-19.114 14.163a26.673 26.673 0 00-8.776 31.684 26.672 26.672 0 0028.61 16.199l23.545-3.503A216.106 216.106 0 0083.22 383.96l-12.257 20.428a26.673 26.673 0 004.018 32.63 26.673 26.673 0 0032.631 4.017l20.428-12.256a216.406 216.406 0 0017.299 11.579l-3.503 23.544a26.67 26.67 0 0016.198 28.61 26.675 26.675 0 0031.685-8.776l14.162-19.114a215.297 215.297 0 0020.432 4.048l5.774 23.096A26.67 26.67 0 00256 512c12.28 0 22.937-8.32 25.914-20.233l5.774-23.097a215.483 215.483 0 0020.432-4.048l14.162 19.114a26.675 26.675 0 0031.685 8.776 26.669 26.669 0 0016.198-28.609l-3.503-23.545a216.406 216.406 0 0017.299-11.579l20.428 12.256a26.673 26.673 0 0032.631-4.017 26.674 26.674 0 004.018-32.631L428.78 383.96a216.106 216.106 0 0011.578-17.298l23.544 3.503a26.67 26.67 0 0028.61-16.198 26.674 26.674 0 00-8.775-31.685l-19.114-14.163a215.28 215.28 0 004.048-20.431zm-40.15 35.238l23.189 17.182a11.696 11.696 0 013.847 13.893 11.683 11.683 0 01-12.544 7.102l-28.559-4.25a7.505 7.505 0 00-7.621 3.708 201.09 201.09 0 01-16.109 24.066 7.503 7.503 0 00-.517 8.47l14.869 24.782a11.692 11.692 0 01-1.762 14.307 11.692 11.692 0 01-14.307 1.761l-24.782-14.869a7.503 7.503 0 00-8.47.516 201.082 201.082 0 01-24.065 16.109 7.5 7.5 0 00-3.708 7.622l4.249 28.56c.792 5.325-2.128 10.483-7.103 12.543s-10.687.478-13.892-3.848l-17.182-23.189a7.504 7.504 0 00-8.015-2.767 199.708 199.708 0 01-28.412 5.628 7.501 7.501 0 00-6.358 5.625l-7.007 28.026C266.056 493.352 261.384 497 256 497s-10.056-3.648-11.361-8.872l-7.007-28.025a7.503 7.503 0 00-6.358-5.625 199.735 199.735 0 01-28.412-5.627 7.496 7.496 0 00-8.014 2.767l-17.182 23.189a11.696 11.696 0 01-13.892 3.848 11.694 11.694 0 01-7.103-12.544l4.249-28.559a7.5 7.5 0 00-3.708-7.622 201.002 201.002 0 01-24.065-16.109 7.5 7.5 0 00-8.47-.516l-24.782 14.869c-4.615 2.771-10.499 2.046-14.307-1.761s-4.532-9.69-1.762-14.307l14.869-24.782a7.5 7.5 0 00-.517-8.47 201.011 201.011 0 01-16.109-24.066 7.505 7.505 0 00-7.621-3.708l-28.56 4.25a11.7 11.7 0 01-12.544-7.103 11.694 11.694 0 013.848-13.892l23.189-17.182a7.501 7.501 0 002.767-8.014 199.751 199.751 0 01-5.628-28.411 7.498 7.498 0 00-5.624-6.358l-28.025-7.006C18.647 266.056 15 261.384 15 256s3.647-10.056 8.871-11.362l28.025-7.006a7.499 7.499 0 005.624-6.358 199.793 199.793 0 015.628-28.412 7.5 7.5 0 00-2.767-8.015l-23.189-17.181a11.696 11.696 0 01-3.847-13.893 11.69 11.69 0 0112.544-7.102l28.559 4.25a7.498 7.498 0 007.621-3.708 201.184 201.184 0 0116.109-24.067 7.503 7.503 0 00.517-8.47L83.826 99.895a11.692 11.692 0 011.762-14.307 11.696 11.696 0 0114.307-1.762l24.782 14.869a7.497 7.497 0 008.47-.516 201.14 201.14 0 0124.066-16.11 7.499 7.499 0 003.707-7.621l-4.249-28.559a11.694 11.694 0 017.103-12.543 11.693 11.693 0 0113.892 3.848l17.182 23.189a7.502 7.502 0 008.014 2.767 199.802 199.802 0 0128.413-5.627 7.501 7.501 0 006.358-5.625l7.007-28.026C245.944 18.648 250.616 15 256 15s10.056 3.648 11.361 8.872l7.007 28.025a7.503 7.503 0 006.358 5.625 199.802 199.802 0 0128.413 5.627 7.501 7.501 0 008.014-2.767l17.182-23.189a11.697 11.697 0 0113.892-3.848 11.694 11.694 0 017.103 12.544l-4.249 28.559a7.499 7.499 0 003.707 7.621 201.06 201.06 0 0124.066 16.11 7.5 7.5 0 008.47.516l24.782-14.869a11.695 11.695 0 0114.307 1.762 11.694 11.694 0 011.762 14.307l-14.869 24.782a7.5 7.5 0 00.517 8.47 201.022 201.022 0 0116.109 24.067 7.509 7.509 0 007.621 3.708l28.56-4.25a11.696 11.696 0 0112.544 7.103 11.692 11.692 0 01-3.848 13.891l-23.189 17.182a7.502 7.502 0 00-2.767 8.015 200.005 200.005 0 015.628 28.413 7.5 7.5 0 005.624 6.357l28.025 7.006c5.223 1.305 8.87 5.977 8.87 11.361s-3.647 10.056-8.871 11.362l-28.025 7.006a7.5 7.5 0 00-5.624 6.357 199.964 199.964 0 01-5.628 28.412 7.499 7.499 0 002.766 8.015z"/><path d="M218.5 256c0 20.678 16.822 37.5 37.5 37.5s37.5-16.822 37.5-37.5-16.822-37.5-37.5-37.5-37.5 16.822-37.5 37.5zm60 0c0 12.407-10.094 22.5-22.5 22.5s-22.5-10.093-22.5-22.5 10.094-22.5 22.5-22.5 22.5 10.093 22.5 22.5zM239.364 139.823c-5.741-4.256-12.936-5.512-19.741-3.445-39.981 12.143-71.101 43.263-83.244 83.244-2.067 6.805-.813 14 3.443 19.741 4.305 5.807 10.914 9.137 18.134 9.137h39.935a7.501 7.501 0 007.264-5.63 52.448 52.448 0 0137.715-37.716 7.5 7.5 0 005.631-7.263v-39.934c-.001-7.22-3.331-13.83-9.137-18.134zm-5.864 52.518a67.452 67.452 0 00-41.159 41.159h-34.385a7.508 7.508 0 01-6.084-3.07c-1.397-1.885-1.813-4.235-1.141-6.448 10.686-35.182 38.069-62.566 73.251-73.251a7.222 7.222 0 012.104-.314c1.537 0 3.05.497 4.344 1.456a7.51 7.51 0 013.069 6.083v34.385zM375.622 219.623c-12.145-39.982-43.264-71.102-83.245-83.245-6.807-2.066-14-.812-19.741 3.445-5.806 4.304-9.136 10.914-9.136 18.133v39.934a7.5 7.5 0 005.631 7.263 52.448 52.448 0 0137.715 37.716 7.501 7.501 0 007.264 5.63h39.935c7.22 0 13.829-3.33 18.134-9.137 4.255-5.739 5.509-12.935 3.443-19.739zm-15.494 10.807a7.508 7.508 0 01-6.084 3.07h-34.385a67.452 67.452 0 00-41.159-41.159v-34.385a7.508 7.508 0 013.069-6.083c1.886-1.398 4.235-1.813 6.448-1.142 35.182 10.686 62.565 38.069 73.252 73.252.672 2.212.256 4.562-1.141 6.447zM136.378 292.377c12.145 39.982 43.264 71.102 83.245 83.245 2.15.653 4.338.974 6.508.974 4.698 0 9.307-1.507 13.233-4.419 5.806-4.304 9.136-10.914 9.136-18.133v-39.935a7.5 7.5 0 00-5.631-7.263 52.448 52.448 0 01-37.715-37.716 7.501 7.501 0 00-7.264-5.63h-39.935c-7.22 0-13.829 3.33-18.134 9.137-4.255 5.74-5.509 12.936-3.443 19.74zm15.494-10.807a7.508 7.508 0 016.084-3.07h34.385a67.455 67.455 0 0041.159 41.159v34.385a7.508 7.508 0 01-3.069 6.083c-1.886 1.398-4.236 1.813-6.448 1.142-35.182-10.686-62.565-38.069-73.252-73.252-.672-2.212-.256-4.562 1.141-6.447zM354.044 263.5h-39.935a7.501 7.501 0 00-7.264 5.63 52.448 52.448 0 01-37.715 37.716 7.5 7.5 0 00-5.631 7.263v39.935c0 7.219 3.33 13.829 9.136 18.133 3.928 2.912 8.535 4.419 13.233 4.419 2.169 0 4.358-.321 6.508-.974 39.981-12.143 71.101-43.263 83.244-83.244 2.067-6.805.813-14-3.443-19.741-4.304-5.807-10.913-9.137-18.133-9.137zm7.225 24.518c-10.686 35.182-38.069 62.566-73.251 73.251-2.212.672-4.563.256-6.448-1.142a7.51 7.51 0 01-3.069-6.083v-34.385A67.452 67.452 0 00319.66 278.5h34.385a7.508 7.508 0 016.084 3.07c1.396 1.885 1.812 4.235 1.14 6.448z"/></svg>