<?xml version="1.0"?>
<svg xmlns="http://www.w3.org/2000/svg" xmlns:xlink="http://www.w3.org/1999/xlink" xmlns:svgjs="http://svgjs.com/svgjs" version="1.1" width="512" height="512" x="0" y="0" viewBox="0 0 512 512" style="enable-background:new 0 0 512 512" xml:space="preserve"><g>
<g xmlns="http://www.w3.org/2000/svg">
	<g>
		<polygon points="470.288,460.684 470.288,157.551 383.89,157.551 383.89,460.684 356.229,460.684 356.229,286.298     269.831,286.298 269.831,460.684 242.169,460.684 242.169,237.251 155.771,237.251 155.771,460.684 128.11,460.684     128.11,352.374 41.712,352.374 41.712,460.684 0,460.684 0,490.684 512,490.684 512,460.684   " fill="#ffffff" data-original="#000000" style=""/>
	</g>
</g>
<g xmlns="http://www.w3.org/2000/svg">
	<g>
		<path d="M427.088,21.316c-27.383,0-49.662,22.278-49.662,49.662c0,9.308,2.579,18.022,7.053,25.476l-51.295,57.9    c-6.164-2.749-12.981-4.291-20.155-4.291c-14.978,0-28.418,6.675-37.531,17.195L248.386,155.6c0.16-1.62,0.246-3.26,0.246-4.921    c0-27.383-22.278-49.662-49.662-49.662c-27.384,0-49.661,22.278-49.661,49.662c0,8.379,2.094,16.275,5.774,23.206l-47.668,47.669    c-6.761-3.453-14.405-5.414-22.503-5.414c-27.383,0-49.661,22.278-49.661,49.661c0,27.383,22.277,49.661,49.66,49.661    s49.662-22.278,49.662-49.662c0-8.379-2.094-16.275-5.774-23.206l47.668-47.668c6.761,3.453,14.405,5.414,22.503,5.414    c14.978,0,28.418-6.675,37.531-17.195l27.112,11.658c-0.16,1.62-0.246,3.26-0.246,4.921c0,27.383,22.278,49.662,49.662,49.662    s49.661-22.278,49.661-49.662c0-9.308-2.579-18.022-7.052-25.476l51.295-57.9c6.164,2.749,12.981,4.291,20.155,4.291    c27.383,0,49.661-22.278,49.661-49.661C476.749,43.595,454.471,21.316,427.088,21.316z" fill="#ffffff" data-original="#000000" style=""/>
	</g>
</g>
<g xmlns="http://www.w3.org/2000/svg">
</g>
<g xmlns="http://www.w3.org/2000/svg">
</g>
<g xmlns="http://www.w3.org/2000/svg">
</g>
<g xmlns="http://www.w3.org/2000/svg">
</g>
<g xmlns="http://www.w3.org/2000/svg">
</g>
<g xmlns="http://www.w3.org/2000/svg">
</g>
<g xmlns="http://www.w3.org/2000/svg">
</g>
<g xmlns="http://www.w3.org/2000/svg">
</g>
<g xmlns="http://www.w3.org/2000/svg">
</g>
<g xmlns="http://www.w3.org/2000/svg">
</g>
<g xmlns="http://www.w3.org/2000/svg">
</g>
<g xmlns="http://www.w3.org/2000/svg">
</g>
<g xmlns="http://www.w3.org/2000/svg">
</g>
<g xmlns="http://www.w3.org/2000/svg">
</g>
<g xmlns="http://www.w3.org/2000/svg">
</g>
</g></svg>
